<mxfile host="app.diagrams.net" modified="2023-07-05T02:58:12.143Z" agent="Mozilla/5.0 (Macintosh; Intel Mac OS X 10_15_7) AppleWebKit/537.36 (KHTML, like Gecko) Chrome/114.0.0.0 Safari/537.36" etag="RNH8_nfEVop5-QXnLVHw" version="21.5.2" type="github">
  <diagram name="Page-1" id="-RpIPuz9YmKVfhQ-e5wv">
    <mxGraphModel dx="839" dy="1131" grid="1" gridSize="10" guides="1" tooltips="1" connect="1" arrows="1" fold="1" page="1" pageScale="1" pageWidth="827" pageHeight="1169" math="0" shadow="0">
      <root>
        <mxCell id="0" />
        <mxCell id="1" parent="0" />
        <mxCell id="BhB_OIrB13sOwprm3m46-2" value="" style="rounded=0;whiteSpace=wrap;html=1;sketch=1;hachureGap=4;jiggle=2;curveFitting=1;fontFamily=Architects Daughter;fontSource=https%3A%2F%2Ffonts.googleapis.com%2Fcss%3Ffamily%3DArchitects%2BDaughter;fontSize=20;" vertex="1" parent="1">
          <mxGeometry x="225" y="680" width="555" height="160" as="geometry" />
        </mxCell>
        <mxCell id="BhB_OIrB13sOwprm3m46-3" value="" style="rounded=1;whiteSpace=wrap;html=1;sketch=1;curveFitting=1;jiggle=2;fillColor=#1ba1e2;fontColor=#ffffff;strokeColor=#006EAF;" vertex="1" parent="1">
          <mxGeometry x="365" y="740" width="120" height="50" as="geometry" />
        </mxCell>
        <mxCell id="BhB_OIrB13sOwprm3m46-4" value="Dataset" style="text;html=1;strokeColor=none;fillColor=none;align=center;verticalAlign=middle;whiteSpace=wrap;rounded=0;fontSize=20;fontFamily=Architects Daughter;" vertex="1" parent="1">
          <mxGeometry x="395" y="750" width="60" height="30" as="geometry" />
        </mxCell>
        <mxCell id="BhB_OIrB13sOwprm3m46-5" value="Powerdrill" style="text;html=1;strokeColor=none;fillColor=none;align=center;verticalAlign=middle;whiteSpace=wrap;rounded=0;fontSize=20;fontFamily=Architects Daughter;" vertex="1" parent="1">
          <mxGeometry x="265" y="690" width="60" height="30" as="geometry" />
        </mxCell>
        <mxCell id="BhB_OIrB13sOwprm3m46-6" value="" style="rounded=0;whiteSpace=wrap;html=1;sketch=1;hachureGap=4;jiggle=2;curveFitting=1;fontFamily=Architects Daughter;fontSource=https%3A%2F%2Ffonts.googleapis.com%2Fcss%3Ffamily%3DArchitects%2BDaughter;fontSize=20;" vertex="1" parent="1">
          <mxGeometry x="225" y="400" width="555" height="160" as="geometry" />
        </mxCell>
        <mxCell id="BhB_OIrB13sOwprm3m46-7" value="OpenAI ChatGPT Plugins" style="text;html=1;strokeColor=none;fillColor=none;align=center;verticalAlign=middle;whiteSpace=wrap;rounded=0;fontSize=20;fontFamily=Architects Daughter;" vertex="1" parent="1">
          <mxGeometry x="240" y="410" width="226" height="30" as="geometry" />
        </mxCell>
        <mxCell id="BhB_OIrB13sOwprm3m46-8" value="" style="rounded=1;whiteSpace=wrap;html=1;sketch=1;curveFitting=1;jiggle=2;fillColor=#008a00;fontColor=#ffffff;strokeColor=#005700;" vertex="1" parent="1">
          <mxGeometry x="245" y="460" width="100" height="50" as="geometry" />
        </mxCell>
        <mxCell id="BhB_OIrB13sOwprm3m46-9" value="Plugin" style="text;html=1;strokeColor=none;fillColor=none;align=center;verticalAlign=middle;whiteSpace=wrap;rounded=0;fontSize=20;fontFamily=Architects Daughter;" vertex="1" parent="1">
          <mxGeometry x="265" y="470" width="60" height="30" as="geometry" />
        </mxCell>
        <mxCell id="BhB_OIrB13sOwprm3m46-10" value="" style="rounded=1;whiteSpace=wrap;html=1;sketch=1;curveFitting=1;jiggle=2;fillColor=#008a00;fontColor=#ffffff;strokeColor=#005700;" vertex="1" parent="1">
          <mxGeometry x="364" y="460" width="100" height="50" as="geometry" />
        </mxCell>
        <mxCell id="BhB_OIrB13sOwprm3m46-11" value="Plugin" style="text;html=1;strokeColor=none;fillColor=none;align=center;verticalAlign=middle;whiteSpace=wrap;rounded=0;fontSize=20;fontFamily=Architects Daughter;" vertex="1" parent="1">
          <mxGeometry x="384" y="470" width="60" height="30" as="geometry" />
        </mxCell>
        <mxCell id="BhB_OIrB13sOwprm3m46-12" value="" style="rounded=1;whiteSpace=wrap;html=1;sketch=1;curveFitting=1;jiggle=2;fillColor=#008a00;fontColor=#ffffff;strokeColor=#005700;" vertex="1" parent="1">
          <mxGeometry x="485" y="460" width="100" height="50" as="geometry" />
        </mxCell>
        <mxCell id="BhB_OIrB13sOwprm3m46-13" value="Plugin" style="text;html=1;strokeColor=none;fillColor=none;align=center;verticalAlign=middle;whiteSpace=wrap;rounded=0;fontSize=20;fontFamily=Architects Daughter;" vertex="1" parent="1">
          <mxGeometry x="505" y="470" width="60" height="30" as="geometry" />
        </mxCell>
        <mxCell id="BhB_OIrB13sOwprm3m46-14" value="..." style="text;html=1;strokeColor=none;fillColor=none;align=center;verticalAlign=middle;whiteSpace=wrap;rounded=0;fontSize=20;fontFamily=Architects Daughter;" vertex="1" parent="1">
          <mxGeometry x="600" y="470" width="60" height="30" as="geometry" />
        </mxCell>
        <mxCell id="BhB_OIrB13sOwprm3m46-17" value="" style="rounded=1;whiteSpace=wrap;html=1;sketch=1;curveFitting=1;jiggle=2;fillColor=#1ba1e2;fontColor=#ffffff;strokeColor=#006EAF;" vertex="1" parent="1">
          <mxGeometry x="660" y="460" width="100" height="50" as="geometry" />
        </mxCell>
        <mxCell id="BhB_OIrB13sOwprm3m46-18" value="Dataset&lt;br&gt;Plugin" style="text;html=1;strokeColor=none;fillColor=none;align=center;verticalAlign=middle;whiteSpace=wrap;rounded=0;fontSize=20;fontFamily=Architects Daughter;" vertex="1" parent="1">
          <mxGeometry x="680" y="470" width="60" height="30" as="geometry" />
        </mxCell>
        <mxCell id="BhB_OIrB13sOwprm3m46-21" style="edgeStyle=orthogonalEdgeStyle;rounded=0;sketch=1;hachureGap=4;jiggle=2;curveFitting=1;orthogonalLoop=1;jettySize=auto;html=1;entryX=0;entryY=0.5;entryDx=0;entryDy=0;fontFamily=Architects Daughter;fontSource=https%3A%2F%2Ffonts.googleapis.com%2Fcss%3Ffamily%3DArchitects%2BDaughter;fontSize=16;" edge="1" parent="1" source="BhB_OIrB13sOwprm3m46-20" target="BhB_OIrB13sOwprm3m46-6">
          <mxGeometry relative="1" as="geometry" />
        </mxCell>
        <mxCell id="BhB_OIrB13sOwprm3m46-22" style="edgeStyle=orthogonalEdgeStyle;rounded=0;sketch=1;hachureGap=4;jiggle=2;curveFitting=1;orthogonalLoop=1;jettySize=auto;html=1;entryX=0;entryY=0.5;entryDx=0;entryDy=0;fontFamily=Architects Daughter;fontSource=https%3A%2F%2Ffonts.googleapis.com%2Fcss%3Ffamily%3DArchitects%2BDaughter;fontSize=16;" edge="1" parent="1" source="BhB_OIrB13sOwprm3m46-20" target="BhB_OIrB13sOwprm3m46-2">
          <mxGeometry relative="1" as="geometry" />
        </mxCell>
        <mxCell id="BhB_OIrB13sOwprm3m46-20" value="User" style="shape=umlActor;verticalLabelPosition=bottom;verticalAlign=top;html=1;outlineConnect=0;sketch=1;hachureGap=4;jiggle=2;curveFitting=1;fontFamily=Architects Daughter;fontSource=https%3A%2F%2Ffonts.googleapis.com%2Fcss%3Ffamily%3DArchitects%2BDaughter;fontSize=20;" vertex="1" parent="1">
          <mxGeometry x="80" y="590" width="30" height="60" as="geometry" />
        </mxCell>
        <mxCell id="BhB_OIrB13sOwprm3m46-25" value="" style="rounded=1;whiteSpace=wrap;html=1;sketch=1;hachureGap=4;jiggle=2;curveFitting=1;fontFamily=Architects Daughter;fontSource=https%3A%2F%2Ffonts.googleapis.com%2Fcss%3Ffamily%3DArchitects%2BDaughter;fontSize=20;fillColor=#6a00ff;fontColor=#ffffff;strokeColor=#3700CC;" vertex="1" parent="1">
          <mxGeometry x="225" y="900" width="120" height="60" as="geometry" />
        </mxCell>
        <mxCell id="BhB_OIrB13sOwprm3m46-26" value="&lt;font style=&quot;font-size: 16px;&quot;&gt;Datasource&lt;/font&gt;" style="text;html=1;strokeColor=none;fillColor=none;align=center;verticalAlign=middle;whiteSpace=wrap;rounded=0;fontSize=20;fontFamily=Architects Daughter;" vertex="1" parent="1">
          <mxGeometry x="255" y="900" width="60" height="30" as="geometry" />
        </mxCell>
        <mxCell id="BhB_OIrB13sOwprm3m46-27" value="&lt;font style=&quot;font-size: 16px;&quot;&gt;Text&lt;/font&gt;" style="text;html=1;strokeColor=none;fillColor=none;align=center;verticalAlign=middle;whiteSpace=wrap;rounded=0;fontSize=20;fontFamily=Architects Daughter;" vertex="1" parent="1">
          <mxGeometry x="255" y="924" width="60" height="30" as="geometry" />
        </mxCell>
        <mxCell id="BhB_OIrB13sOwprm3m46-28" value="" style="rounded=1;whiteSpace=wrap;html=1;sketch=1;hachureGap=4;jiggle=2;curveFitting=1;fontFamily=Architects Daughter;fontSource=https%3A%2F%2Ffonts.googleapis.com%2Fcss%3Ffamily%3DArchitects%2BDaughter;fontSize=20;fillColor=#6a00ff;fontColor=#ffffff;strokeColor=#3700CC;" vertex="1" parent="1">
          <mxGeometry x="380" y="900" width="120" height="60" as="geometry" />
        </mxCell>
        <mxCell id="BhB_OIrB13sOwprm3m46-29" value="&lt;font style=&quot;font-size: 16px;&quot;&gt;Datasource&lt;/font&gt;" style="text;html=1;strokeColor=none;fillColor=none;align=center;verticalAlign=middle;whiteSpace=wrap;rounded=0;fontSize=20;fontFamily=Architects Daughter;" vertex="1" parent="1">
          <mxGeometry x="410" y="900" width="60" height="30" as="geometry" />
        </mxCell>
        <mxCell id="BhB_OIrB13sOwprm3m46-30" value="&lt;font style=&quot;font-size: 16px;&quot;&gt;Web&lt;/font&gt;" style="text;html=1;strokeColor=none;fillColor=none;align=center;verticalAlign=middle;whiteSpace=wrap;rounded=0;fontSize=20;fontFamily=Architects Daughter;" vertex="1" parent="1">
          <mxGeometry x="410" y="924" width="60" height="30" as="geometry" />
        </mxCell>
        <mxCell id="BhB_OIrB13sOwprm3m46-31" value="" style="rounded=1;whiteSpace=wrap;html=1;sketch=1;hachureGap=4;jiggle=2;curveFitting=1;fontFamily=Architects Daughter;fontSource=https%3A%2F%2Ffonts.googleapis.com%2Fcss%3Ffamily%3DArchitects%2BDaughter;fontSize=20;fillColor=#6a00ff;fontColor=#ffffff;strokeColor=#3700CC;" vertex="1" parent="1">
          <mxGeometry x="530" y="900" width="230" height="60" as="geometry" />
        </mxCell>
        <mxCell id="BhB_OIrB13sOwprm3m46-32" value="&lt;font style=&quot;font-size: 16px;&quot;&gt;Datasource&lt;/font&gt;" style="text;html=1;strokeColor=none;fillColor=none;align=center;verticalAlign=middle;whiteSpace=wrap;rounded=0;fontSize=20;fontFamily=Architects Daughter;" vertex="1" parent="1">
          <mxGeometry x="615" y="900" width="60" height="30" as="geometry" />
        </mxCell>
        <mxCell id="BhB_OIrB13sOwprm3m46-33" value="&lt;font style=&quot;&quot;&gt;&lt;font style=&quot;font-size: 16px;&quot;&gt;Files&lt;/font&gt;&lt;font style=&quot;font-size: 12px;&quot;&gt; &lt;/font&gt;&lt;font style=&quot;font-size: 12px;&quot;&gt;(Pdf, csv, ppt, excel, etc.)&lt;/font&gt;&lt;/font&gt;" style="text;html=1;strokeColor=none;fillColor=none;align=center;verticalAlign=middle;whiteSpace=wrap;rounded=0;fontSize=20;fontFamily=Architects Daughter;strokeWidth=2;" vertex="1" parent="1">
          <mxGeometry x="550" y="926" width="200" height="30" as="geometry" />
        </mxCell>
        <mxCell id="BhB_OIrB13sOwprm3m46-36" style="edgeStyle=orthogonalEdgeStyle;rounded=0;sketch=1;hachureGap=4;jiggle=2;curveFitting=1;orthogonalLoop=1;jettySize=auto;html=1;exitX=1;exitY=0.5;exitDx=0;exitDy=0;entryX=1.167;entryY=0.5;entryDx=0;entryDy=0;entryPerimeter=0;fontFamily=Architects Daughter;fontSource=https%3A%2F%2Ffonts.googleapis.com%2Fcss%3Ffamily%3DArchitects%2BDaughter;fontSize=16;" edge="1" parent="1" source="BhB_OIrB13sOwprm3m46-32" target="BhB_OIrB13sOwprm3m46-32">
          <mxGeometry relative="1" as="geometry" />
        </mxCell>
      </root>
    </mxGraphModel>
  </diagram>
</mxfile>
